<?xml version="1.0" encoding="UTF-8" standalone="no"?><!DOCTYPE svg PUBLIC "-//W3C//DTD SVG 1.1//EN" "http://www.w3.org/Graphics/SVG/1.1/DTD/svg11.dtd"><svg width="100%" height="100%" viewBox="0 0 264 265" version="1.1" xmlns="http://www.w3.org/2000/svg" xmlns:xlink="http://www.w3.org/1999/xlink" xml:space="preserve" xmlns:serif="http://www.serif.com/" style="fill-rule:evenodd;clip-rule:evenodd;stroke-linejoin:round;stroke-miterlimit:2;"><path d="M110.488,0l-110.488,0l0,264.869l77.569,0l-0,-79.839c17.405,1.892 30.649,2.27 40.487,2.27l52.217,77.569l93.083,0l-0,-1.892l-71.515,-92.704c30.649,-16.649 51.082,-44.649 51.082,-78.326c-0,-56.379 -43.893,-91.947 -132.435,-91.947Zm-32.919,128.272l-0,-69.244l34.433,-0c33.298,-0 51.082,10.216 51.082,33.676c-0,24.974 -18.92,37.839 -54.866,37.839c-10.216,-0 -20.811,-1.136 -30.649,-2.271Z" style="fill:#fff;fill-rule:nonzero;"/></svg>