<?xml version="1.0" encoding="UTF-8" standalone="no"?><!DOCTYPE svg PUBLIC "-//W3C//DTD SVG 1.1//EN" "http://www.w3.org/Graphics/SVG/1.1/DTD/svg11.dtd"><svg width="100%" height="100%" viewBox="0 0 1348 274" version="1.1" xmlns="http://www.w3.org/2000/svg" xmlns:xlink="http://www.w3.org/1999/xlink" xml:space="preserve" xmlns:serif="http://www.serif.com/" style="fill-rule:evenodd;clip-rule:evenodd;stroke-linejoin:round;stroke-miterlimit:2;"><path d="M110.488,4.541l-110.488,-0l0,264.869l77.569,-0l-0,-79.839c17.405,1.892 30.649,2.27 40.487,2.27l52.217,77.569l93.083,-0l-0,-1.892l-71.515,-92.704c30.649,-16.649 51.082,-44.65 51.082,-78.326c-0,-56.379 -43.893,-91.947 -132.435,-91.947Zm-32.919,128.272l-0,-69.244l34.433,-0c33.298,-0 51.082,10.216 51.082,33.676c-0,24.973 -18.92,37.838 -54.866,37.838c-10.216,0 -20.811,-1.135 -30.649,-2.27Z" style="fill:#fff;fill-rule:nonzero;"/><path d="M400.709,273.95c74.542,0 130.543,-39.73 130.543,-119.569l-0,-149.84l-77.569,-0l-0,147.191c-0,40.487 -17.027,59.785 -49.568,59.785c-31.028,-0 -48.434,-20.054 -48.434,-59.785l0,-147.191l-75.677,-0l0,149.84c0,79.839 52.596,119.569 120.705,119.569Z" style="fill:#fff;fill-rule:nonzero;"/><path d="M568.333,4.541l0,264.869l188.436,-0l7.567,-61.299l-118.434,0l0,-203.57l-77.569,-0Z" style="fill:#fff;fill-rule:nonzero;"/><path d="M934.231,273.572c35.568,-0 79.082,-8.703 101.785,-18.919l16.271,-66.596l-0.757,0c-22.703,10.973 -62.055,22.325 -102.92,22.325c-52.974,-0 -85.894,-17.784 -93.461,-59.407l201.3,0c3.027,-10.594 4.541,-23.081 4.541,-37.081c-0,-74.164 -57.515,-113.894 -137.354,-113.894c-91.947,0 -152.867,56.758 -152.867,137.354c0,71.136 51.839,136.218 163.462,136.218Zm-77.19,-169.138c8.324,-31.406 31.027,-47.676 63.947,-47.676c34.433,-0 58.649,17.027 61.298,47.676l-125.245,0Z" style="fill:#fff;fill-rule:nonzero;"/><path d="M1194.94,4.541l-110.488,-0l-0,264.869l77.568,-0l0,-79.839c17.406,1.892 30.65,2.27 40.488,2.27l52.217,77.569l93.082,-0l0,-1.892l-71.514,-92.704c30.649,-16.649 51.081,-44.65 51.081,-78.326c0,-56.379 -43.892,-91.947 -132.434,-91.947Zm-32.92,128.272l0,-69.244l34.433,-0c33.298,-0 51.082,10.216 51.082,33.676c0,24.973 -18.919,37.838 -54.865,37.838c-10.217,0 -20.812,-1.135 -30.65,-2.27Z" style="fill:#fff;fill-rule:nonzero;"/></svg>